<svg xmlns="http://www.w3.org/2000/svg" xmlns:xlink="http://www.w3.org/1999/xlink" viewBox="0 0 45 45">
	<style type="text/css">  
	.st0{fill:#3E3F1E;}
	.st1{fill:#FFFFFF;}
</style>
<g>
	<rect class="st0" width="45" height="45"/>
</g>
<g>
	<path class="st1" d="M21.6 12.3c0.4-1 0.5-1.2 0.6-1.2 0.2 0 0.3 0.1 0.6 1.1 0.4 1.1 5.1 13.3 6.9 17.8 1.1 2.6 1.9 3.1 2.5 3.3 0.4 0.1 0.9 0.2 1.2 0.2 0.2 0 0.3 0 0.3 0.2 0 0.2-0.3 0.2-0.6 0.2 -0.4 0-2.6 0-4.6-0.1 -0.6 0-0.9 0-0.9-0.2 0-0.1 0.1-0.2 0.2-0.2 0.2-0.1 0.4-0.3 0.2-0.8l-2.7-7.3c-0.1-0.1-0.1-0.2-0.3-0.2h-6.3c-0.1 0-0.2 0.1-0.3 0.2l-1.8 5.2c-0.3 0.7-0.4 1.4-0.4 2 0 0.6 0.6 0.9 1.1 0.9h0.3c0.2 0 0.3 0.1 0.3 0.2 0 0.2-0.2 0.2-0.4 0.2 -0.7 0-2-0.1-2.3-0.1 -0.3 0-1.9 0.1-3.3 0.1 -0.4 0-0.6-0.1-0.6-0.2 0-0.1 0.1-0.2 0.3-0.2 0.2 0 0.6 0 0.9-0.1 1.4-0.2 1.9-1.3 2.5-2.8L21.6 12.3zM24.6 24.1c0.1 0 0.1-0.1 0.1-0.2l-2.8-8c-0.1-0.4-0.3-0.4-0.4 0l-2.6 8c-0.1 0.1 0 0.2 0.1 0.2H24.6z"/>
</g>
</svg>